<?xml version="1.0" encoding="UTF-8"?>
<!-- Generator: Adobe Illustrator 14.0.0, SVG Export Plug-In . SVG Version: 6.00 Build 43363)  -->
<!DOCTYPE svg PUBLIC "-//W3C//DTD SVG 1.1//EN" "http://www.w3.org/Graphics/SVG/1.1/DTD/svg11.dtd">
<svg version="1.1" id="Layer_1" xmlns="http://www.w3.org/2000/svg" xmlns:xlink="http://www.w3.org/1999/xlink" x="0px" y="0px" width="2490.25px" height="321.032px" viewBox="995.294 -765.774 2490.25 321.032" enable-background="new 995.294 -765.774 2490.25 321.032" xml:space="preserve">
<rect x="995.294" y="-765.774" fill="#FFFFFF" width="2490.25" height="321.032"/>
<path d="M1021.037-678.791c42.47-24.26,84.97-48.47,127.47-72.7c41.67,23.979,83.32,48,125,71.979  c41.341-23.979,82.66-48,124-71.979c42.261,24.05,84.461,48.2,126.73,72.229c1.5,0.58,1.19,2.51,1.28,3.78  c-0.021,47.36-0.021,94.73,0,142.089c-0.08,1.23,0.17,3.091-1.28,3.65c-42.27,24.37-84.48,48.85-126.74,73.23  c-41.33-23.98-82.649-47.99-123.99-71.98c-41.68,23.99-83.33,48.01-125.01,71.98c-42.25-24.4-84.48-48.86-126.74-73.25  c-1.49-0.57-1.16-2.49-1.26-3.73c0.02-47,0.03-94-0.01-140.99C1020.567-675.92,1020.297-677.48,1021.037-678.791 M1032.197-677.761  c-1.92,1.09-3.771,2.36-5.9,3.05c0.44,4.37,0.11,8.78,0.21,13.17c0.01,41.37-0.02,82.74,0.021,124.11c0,1.08-0.09,2.17-0.311,3.24  c1.96,0.33,3.54,1.67,5.261,2.59c39.01,22.699,78.01,45.399,117.029,68.09c39.19-22.79,78.38-45.59,117.561-68.4  c1.58-0.77,3-2.26,4.87-2.199c-0.311-0.761-0.45-1.551-0.44-2.361c0.01-45.02,0.03-90.04-0.01-135.059  c-0.021-1.11,0.109-2.22,0.33-3.31c-1.771-0.14-3.181-1.38-4.7-2.17c-39.2-22.51-78.4-44.99-117.61-67.479  C1109.737-722.25,1070.967-700,1032.197-677.761 M1277.187-674.82c-0.271-0.03-0.83-0.1-1.11-0.14c0.77,2.08,0.34,4.33,0.43,6.5  c-0.01,42.32,0,84.64,0,126.96c-0.04,2.45,0.21,4.939-0.319,7.35c1.779,0.121,3.17,1.42,4.699,2.211  c38.86,22.83,77.74,45.629,116.61,68.43c40.49-23.5,80.91-47.131,121.42-70.59c0.271,0.039,0.82,0.109,1.09,0.149  c-0.39-0.8-0.569-1.64-0.51-2.521c0.021-45.369,0.01-90.729,0-136.099c-0.029-0.84,0.13-1.64,0.49-2.4  c-0.26,0.01-0.79,0.05-1.05,0.06c-40.54-23.07-80.931-46.41-121.42-69.58C1357.417-721.25,1317.227-698.15,1277.187-674.82z"/>
<path d="M1994.727-679.23c41.939-24.05,83.85-48.18,125.77-72.26c41.681,23.979,83.33,48,125.01,71.979  c41.671-23.979,83.33-48,125-71.979c41.931,24.07,83.82,48.21,125.771,72.25c1.44,0.57,1.12,2.44,1.24,3.66  c-0.011,47.03-0.03,94.07,0.01,141.1c-0.12,1.431,0.21,3.041-0.61,4.32c-42.119,24.57-84.27,49.11-126.41,73.65  c-41.68-23.971-83.329-47.99-125-71.98c-41.67,23.99-83.329,48-125,71.98c-41.939-24.391-83.829-48.86-125.779-73.24  c-1.46-0.561-1.141-2.439-1.23-3.66c0.021-47.38,0.021-94.75,0-142.13C1993.577-676.771,1993.267-678.65,1994.727-679.23   M2001.257-675.5c-0.539,0.14-1.609,0.43-2.149,0.58c0.68,2.07,0.33,4.28,0.399,6.42c0,43.02-0.01,86.04,0.011,129.061  c-0.09,1.77,0.3,3.66-0.48,5.34c0.28,0.01,0.82,0.029,1.101,0.05c40.18,23.399,80.229,47.06,120.369,70.54  c39.4-22.92,78.811-45.83,118.2-68.78c1.38-0.67,2.63-2.03,4.3-1.79c-0.399-0.75-0.569-1.55-0.51-2.38  c0.01-44.351,0.021-88.7,0-133.04c0.07-1.82-0.33-3.75,0.49-5.46c-0.28,0.04-0.83,0.13-1.1,0.17  c-40.4-23.33-80.92-46.45-121.37-69.7C2080.757-721.49,2041.007-698.511,2001.257-675.5 M2268.157-685.771  c-6.66,3.59-12.979,7.92-19.87,11.02c0.511,6.74,0.08,13.51,0.22,20.26c0,35,0,69.99,0,104.99c-0.289,5.12,0.57,10.391-0.439,15.42  c0.29-0.02,0.85-0.061,1.13-0.08c40.37,23.66,80.88,47.1,121.31,70.65c40.11-23.57,80.291-47.01,120.341-70.67  c0.25,0.029,0.76,0.09,1.01,0.119c-0.64-2.41-0.3-4.93-0.351-7.39c-0.01-42.68,0.011-85.36-0.01-128.04  c0.101-1.8-0.41-3.78,0.53-5.43c-0.31,0.02-0.94,0.06-1.25,0.08c-40.021-23.34-80.2-46.41-120.28-69.65  C2336.377-724.92,2302.277-705.34,2268.157-685.771z"/>
<path d="M2966.076-678.811c42.461-24.25,84.951-48.47,127.43-72.68c41.33,23.99,82.66,47.99,123.99,71.979  c41.68-23.979,83.34-48,125.01-71.979c41.41,23.59,82.801,47.229,124.211,70.82c1.59,0.99,4.16,1.63,3.779,4.07  c0.041,47.71-0.02,95.43,0.021,143.15c-0.131,1.25,0.189,3.16-1.301,3.72c-42.25,24.371-84.461,48.82-126.699,73.221  c-41.682-23.971-83.33-47.99-125-71.98c-41.352,23.98-82.67,48.02-124.031,71.98c-42.26-24.41-84.49-48.87-126.76-73.27  c-1.459-0.561-1.17-2.421-1.23-3.631c0.01-47.01,0.031-94.01-0.01-141.01C2965.537-675.88,2965.236-677.5,2966.076-678.811   M2975.916-677.021c-1.609,0.75-3.02,2.28-4.859,2.13c0.881,2.34,0.279,4.91,0.449,7.35c0,33.67,0,67.351,0,101.021  c-0.209,10.81,0.41,21.67-0.309,32.439c0.24-0.02,0.73-0.061,0.98-0.08c40.389,23.641,80.889,47.1,121.328,70.65  c39.08-22.92,78.17-45.84,117.23-68.79c1.34-0.63,2.561-2.08,4.221-1.729c-0.84-2.051-0.381-4.311-0.451-6.461  c-0.01-43.32,0.021-86.64-0.02-129.96c0.07-1.53-0.359-3.27,0.641-4.61c-0.881,0.35-1.68,0.21-2.381-0.44  c-39.74-23.02-79.5-45.99-119.25-68.99C3054.297-722,3015.107-699.521,2975.916-677.021 M3228.806-679.261  c-2.92,1.38-5.48,3.79-8.65,4.39c0.811,6.72,0.111,13.58,0.35,20.36c0.012,38.66-0.029,77.321,0.021,115.981  c-0.15,1.52,0.309,3.239-0.631,4.579c0.83-0.329,1.621-0.17,2.371,0.47c40.059,23.351,80.148,46.65,120.238,69.971  c40.461-23.57,80.98-47.02,121.381-70.69c0.289,0.04,0.859,0.12,1.141,0.16c-0.93-1.681-0.451-3.66-0.531-5.479  c0.021-41.32,0-82.65,0.01-123.97c0.301-3.84-0.699-7.9,0.561-11.58c-1.67,0.75-3.02-1.07-4.41-1.62  c-39.359-22.62-78.76-45.19-118.139-67.8C3304.607-722.771,3266.717-701,3228.806-679.261z"/>
<path d="M1399.507-721.49c33,19.34,66.011,38.64,98.99,58c-0.99,1.67-1.99,3.33-3,4.979c-33-19-66.01-37.96-98.979-57.01  C1397.497-717.511,1398.497-719.5,1399.507-721.49z"/>
<path d="M2020.517-663.49c32.979-19.36,65.989-38.67,98.989-57.99c1,1.98,2,3.97,2.99,5.97c-32.979,19.03-65.979,38.01-98.979,57  C2022.497-660.161,2021.497-661.82,2020.517-663.49z"/>
<path d="M2371.527-721.48c32.99,19.34,65.99,38.63,98.97,57.99c-1,1.67-2,3.33-3,4.979c-33-18.99-66-37.97-98.979-57  C2369.487-717.511,2370.487-719.5,2371.527-721.48z"/>
<path d="M2992.517-663.49c32.979-19.36,65.988-38.66,98.979-58c1,1.99,2,3.979,3,5.99c-32.969,19.02-65.979,37.98-98.959,56.99  C2994.486-660.161,2993.486-661.811,2992.517-663.49z"/>
<path d="M3242.517-663.49c32.979-19.35,65.988-38.67,98.988-57.99c0.99,1.98,1.99,3.97,2.99,5.97c-32.969,19.03-65.979,38-98.979,57  C3244.476-660.161,3243.486-661.82,3242.517-663.49z"/>
<path d="M1146.516-715.5c1.32-2.01,2.65-4.01,3.99-6c32.67,19.34,65.34,38.65,97.99,58.01c-0.99,1.67-1.99,3.33-3,4.979  C1212.497-677.5,1179.497-696.49,1146.516-715.5z"/>
<path d="M1046.507-661.5c2,0,4,0,6,0c0,38,0,76,0,114c-2,0-4,0-6,0C1046.507-585.5,1046.507-623.5,1046.507-661.5z"/>
<path d="M2216.507-661.5c1.99,0,3.99,0,6,0c0,38,0,76,0,114c-2.01,0-4.01,0-6,0C2216.507-585.5,2216.507-623.5,2216.507-661.5z"/>
<path d="M3438.506-661.5c1.971,0,3.971,0,6,0c0,38,0,76,0,114c-2.029,0-4.029,0-6,0C3438.506-585.5,3438.506-623.5,3438.506-661.5z"/>
<path d="M1804.737-633.471c36.79,9.76,73.65,19.3,110.39,29.22c-36.84,9.35-73.689,18.67-110.56,27.95  c6.7-7.63,14.03-15.431,16.64-25.54c-41.229-0.01-82.46,0-123.689-0.01c2.47,10.41,9.71,18.64,16.45,26.59  c-36.83-9.67-73.631-19.4-110.44-29.13c36.87-9.46,73.81-18.67,110.71-28.04c-6.75,7.61-14.05,15.46-16.71,25.57  c41.25,0.01,82.49,0.04,123.729-0.02C1818.697-617.271,1811.527-625.541,1804.737-633.471z"/>
<path d="M2777.336-633.19c18.342,4.33,36.5,9.56,54.781,14.24c18.49,4.92,37.029,9.68,55.5,14.7  c-36.92,9.29-73.82,18.67-110.73,27.971c6.711-7.601,13.98-15.41,16.66-25.48c-41.221-0.2-82.461-0.04-123.68-0.08  c2.48,10.42,9.709,18.68,16.49,26.619c-36.67-9.719-73.381-19.279-110.021-29.089c19.851-5.6,40.021-10.21,59.999-15.42  c16.801-4.25,33.592-8.5,50.4-12.73c-6.939,7.5-14.129,15.48-16.869,25.58c41.23,0.06,82.469,0.02,123.699,0.02  C2791.127-617.15,2784.017-625.34,2777.336-633.19z"/>
<path d="M1146.516-492.5c32.99-19.01,65.99-38,98.98-56.99c1.02,1.65,2.02,3.311,3,4.99c-32.65,19.01-65.32,38.01-97.99,56.99  C1149.157-489.161,1147.827-490.821,1146.516-492.5z"/>
<path d="M1396.517-492.491c32.979-19.02,65.989-38,98.979-57c1.021,1.65,2.021,3.311,3,4.98c-32.979,19.029-65.979,38.01-98.979,57  C1398.497-489.161,1397.497-490.831,1396.517-492.491z"/>
<path d="M2023.517-549.491c32.989,18.99,66,37.98,98.979,57c-0.99,1.67-1.99,3.33-3,4.98c-33-18.99-66-37.971-98.979-56.99  C2021.487-546.18,2022.487-547.84,2023.517-549.491z"/>
<path d="M2368.517-492.491c32.979-19.02,65.979-38,98.979-57c1.01,1.65,2.01,3.311,3,4.98c-32.979,19.029-65.979,38.01-98.979,57  C2370.487-489.161,2369.487-490.821,2368.517-492.491z"/>
<path d="M2995.506-549.491c33,18.99,66.012,37.98,98.99,57c-1,1.67-2.01,3.33-3,4.98c-33-18.99-66-37.971-98.979-57  C2993.476-546.18,2994.476-547.84,2995.506-549.491z"/>
<path d="M3245.517-549.491c32.988,19,66,37.98,98.979,57c-1,1.67-2.01,3.33-3,4.98c-33-18.99-66-37.971-98.979-56.99  C3243.476-546.18,3244.476-547.84,3245.517-549.491z"/>
</svg>